<svg viewBox="0 0 369.71784232365144 52.282157676348554" height="52.282157676348554" width="369.71784232365144" style="width: 369.718px; height: 52.2822px; position: absolute; top: 50%; left: 50%; transform: translate(-50%, -50%) scale(0.663479); z-index: 0; cursor: pointer;"><defs id="SvgjsDefs1019"></defs><g id="SvgjsG1020" featurekey="symbolFeature-0" transform="matrix(1.6338174273858923,0,0,1.6338174273858923,0,0)" fill="#f08a5d"><g xmlns="http://www.w3.org/2000/svg" display="none"><rect x="-153.365" y="-18.667" display="inline" fill="#f08a5d" width="473.333" height="236"></rect></g><g xmlns="http://www.w3.org/2000/svg" display="none"><ellipse transform="matrix(0.7071 -0.7071 0.7071 0.7071 -6.6274 16)" display="inline" cx="16" cy="16" rx="16" ry="16"></ellipse><line display="inline" fill="#f08a5d" stroke="#f08a5d" stroke-miterlimit="10" x1="7.837" y1="15.12" x2="15.267" y2="7.69"></line><line display="inline" fill="#f08a5d" stroke="#f08a5d" stroke-miterlimit="10" x1="7.968" y1="19.579" x2="20.033" y2="7.514"></line><line display="inline" fill="#f08a5d" stroke="#f08a5d" stroke-miterlimit="10" x1="7.759" y1="24.377" x2="24.241" y2="7.896"></line><line display="inline" fill="#f08a5d" stroke="#f08a5d" stroke-miterlimit="10" x1="12.518" y1="24.209" x2="24.064" y2="12.662"></line><line display="inline" fill="#f08a5d" stroke="#f08a5d" stroke-miterlimit="10" x1="16.83" y1="24.486" x2="24.22" y2="17.096"></line></g><g xmlns="http://www.w3.org/2000/svg"><path d="M16,0C11.905,0,7.81,1.562,4.686,4.686c-6.248,6.248-6.248,16.379,0,22.627C7.81,30.438,11.905,32,16,32   c4.095,0,8.19-1.562,11.314-4.686c6.248-6.248,6.248-16.379,0-22.627C24.19,1.562,20.095,0,16,0z M26.607,26.607   C23.773,29.44,20.007,31,16,31s-7.773-1.56-10.607-4.393c-5.849-5.849-5.849-15.365,0-21.213C8.227,2.56,11.993,1,16,1   s7.773,1.56,10.607,4.393C32.455,11.242,32.455,20.758,26.607,26.607z"></path><rect x="6.298" y="10.905" transform="matrix(0.7071 -0.7071 0.7071 0.7071 -4.681 11.5091)" width="10.508" height="1"></rect><rect x="5.469" y="13.046" transform="matrix(0.7071 -0.7071 0.7071 0.7071 -5.4781 13.8675)" width="17.063" height="1"></rect><rect x="4.346" y="15.637" transform="matrix(0.7071 -0.7071 0.7071 0.7071 -6.7239 16.04)" width="23.307" height="1"></rect><rect x="10.126" y="17.936" transform="matrix(0.7071 -0.7071 0.7071 0.7071 -7.6786 18.3333)" width="16.33" height="1"></rect><rect x="15.3" y="20.292" transform="matrix(0.7071 -0.7071 0.7071 0.7071 -8.6902 20.603)" width="10.451" height="1"></rect></g><g xmlns="http://www.w3.org/2000/svg" display="none"><g display="inline"><path fill="#f08a5d" d="M16,31.5c-4.141,0-8.032-1.612-10.96-4.54S0.5,20.141,0.5,16c0-4.14,1.612-8.033,4.54-10.96    C7.968,2.112,11.859,0.5,16,0.5s8.032,1.612,10.96,4.54C29.888,7.967,31.5,11.86,31.5,16c0,4.141-1.612,8.032-4.54,10.96    S20.141,31.5,16,31.5z"></path><g><path fill="#f08a5d" d="M16,1c4.007,0,7.773,1.56,10.607,4.393c5.848,5.849,5.848,15.365,0,21.213C23.773,29.44,20.007,31,16,31     c-4.007,0-7.773-1.56-10.607-4.393c-5.849-5.849-5.849-15.365,0-21.213C8.227,2.56,11.993,1,16,1 M16,0     C11.905,0,7.81,1.562,4.686,4.686c-6.248,6.248-6.248,16.379,0,22.627C7.81,30.438,11.905,32,16,32s8.19-1.562,11.314-4.686     c6.248-6.248,6.248-16.379,0-22.627C24.19,1.562,20.095,0,16,0L16,0z"></path></g></g><line display="inline" fill="#f08a5d" stroke="#f08a5d" stroke-miterlimit="10" x1="7.837" y1="15.12" x2="15.267" y2="7.69"></line><line display="inline" fill="#f08a5d" stroke="#f08a5d" stroke-miterlimit="10" x1="7.968" y1="19.579" x2="20.033" y2="7.514"></line><line display="inline" fill="#f08a5d" stroke="#f08a5d" stroke-miterlimit="10" x1="7.759" y1="24.377" x2="24.241" y2="7.896"></line><line display="inline" fill="#f08a5d" stroke="#f08a5d" stroke-miterlimit="10" x1="12.518" y1="24.209" x2="24.064" y2="12.662"></line><line display="inline" fill="#f08a5d" stroke="#f08a5d" stroke-miterlimit="10" x1="16.83" y1="24.486" x2="24.22" y2="17.096"></line></g><g xmlns="http://www.w3.org/2000/svg" display="none"><path display="inline" d="M4.686,4.686c-6.248,6.248-6.248,16.379,0,22.627c6.248,6.248,16.379,6.248,22.627,0   c6.248-6.248,6.248-16.379,0-22.627C21.065-1.562,10.935-1.562,4.686,4.686z M19.68,7.16l0.707,0.707L8.321,19.933l-0.707-0.707   L19.68,7.16z M14.914,7.336l0.707,0.707l-7.431,7.43l-0.707-0.707L14.914,7.336z M12.871,24.562l-0.707-0.707l11.547-11.547   l0.707,0.707L12.871,24.562z M17.184,24.84l-0.707-0.707l7.39-7.39l0.707,0.707L17.184,24.84z M8.113,24.73l-0.707-0.707   l16.48-16.481l0.707,0.707L8.113,24.73z"></path></g></g><g id="SvgjsG1021" featurekey="nameFeature-0" transform="matrix(1.0652373398490582,0,0,1.0652373398490582,72,-1.7402386252303153)" fill="#f08a5d"><path d="M0 12.079999999999998 l1.44 0 l0 26.48 l15.32 0 l0 -4 l-11.28 0 l0 -3.84 l1.44 0 l0 2.4 l11.28 0 l0 6.88 l-18.2 0 l0 -27.92 z M2.72 12.079999999999998 l15.28 0 l0 6.84 l-9.6 0 l0 -1.44 l8.16 0 l0 -3.96 l-12.4 0 l0 11.56 l9.32 0 l0 1.44 l-10.76 0 l0 -14.44 z M2.72 27.8 l12.16 0 l0 -4 l-9.4 0 l0 -9.08 l9.68 0 l0 1.44 l-8.24 0 l0 6.2 l9.4 0 l0 6.88 l-12.16 0 l0 6.64 l11.2 0 l0 1.44 l-12.64 0 l0 -9.52 z M45.245 28.28 l-13.92 0 l0 4.2 l13.92 0 l0 -4.2 z M32.765 31.04 l0 -1.32 l11.24 0 l0 1.32 l-11.24 0 z M56.209999999999994 11.96 l4.12 0 l0 25.4 l-1.48 0 l0 -23.96 l-1.2 0 l0 25.16 l13.16 0 l0 -3.84 l-6.52 0 l0 -1.44 l7.96 0 l0 6.72 l-16.04 0 l0 -28.04 z M61.64999999999999 11.96 l1.44 0 l0 23.92 l6.44 0 l0 1.48 l-7.88 0 l0 -25.4 z M81.13499999999999 12.079999999999998 l1.44 0 l0 26.48 l15.32 0 l0 -4 l-11.28 0 l0 -3.84 l1.44 0 l0 2.4 l11.28 0 l0 6.88 l-18.2 0 l0 -27.92 z M83.85499999999999 12.079999999999998 l15.28 0 l0 6.84 l-9.6 0 l0 -1.44 l8.16 0 l0 -3.96 l-12.4 0 l0 11.56 l9.32 0 l0 1.44 l-10.76 0 l0 -14.44 z M83.85499999999999 27.8 l12.16 0 l0 -4 l-9.4 0 l0 -9.08 l9.68 0 l0 1.44 l-8.24 0 l0 6.2 l9.4 0 l0 6.88 l-12.16 0 l0 6.64 l11.2 0 l0 1.44 l-12.64 0 l0 -9.52 z M111.65999999999998 37.52 l1.76 0 l1.4 -3.36 l10.44 0.04 l2.56 5.8 l7.36 -0.04 l-12.6 -27.96 l-2.56 0 l-12.52 27.96 l7.8 0 l1.36 -3.2 l7.96 0 l-0.6 -1.36 l-8.24 0 l-1.28 3.16 l-4.76 0 l11.08 -25.2 l0.96 0 l11.12 25.2 l-4.24 0 l-2.56 -5.72 l-12.4 0 z M116.41999999999999 30.48 l4.88 -11.64 l8.2 18.64 l1.64 0 l-9.84 -21.92 l-7.2 16.16 l11.6 0 l-4.4 -9.72 l-3.04 7.32 l1.56 0 l1.48 -3.64 l2.2 4.8 l-7.08 0 z M162.745 38.56 l-4.6 0 l-5.52 -10.28 l-3.72 0.04 l0 10.24 l-4.04 0 l0 -26.56 l-1.44 0 l0 28 l6.96 0 l0 -10.28 l1.4 0 l5.48 10.28 l7.88 0 l-5.52 -10.32 l-1.32 0.52 z M153.225 13.440000000000001 c5.8 0 9.08 2.6 9.08 7.36 c0 4.32 -2.6 6.96 -7.12 7.44 l-1.08 0.12 l5 9.24 l1.64 0 l-4.36 -8.12 c4.8 -0.84 7.36 -3.76 7.36 -8.68 c0 -1.64 -0.36 -3.12 -1.04 -4.44 c-1.6 -2.84 -4.88 -4.36 -9.48 -4.36 l-7.08 0 l0 25.56 l1.44 0 l0 -24.12 l5.64 0 z M152.905 27.04 c5.48 0 8.08 -1.88 8.08 -6.04 c0 -3.96 -2.72 -6.2 -7.08 -6.2 l-5.04 0 l0 4.2 l4.6 0 c2.12 0 3.2 0.6 3.2 1.8 c0 1.4 -1.32 2.08 -4 2.08 l-2.32 0 l0 -2.48 l-1.48 0 l0 3.92 l3.8 0 c3.56 0 5.44 -1.24 5.44 -3.52 c0 -0.72 -0.16 -1.28 -0.52 -1.72 c-0.68 -1 -2.04 -1.48 -4.12 -1.48 l-3.12 0 l0 -1.36 l3.56 0 c3.56 0 5.64 1.72 5.64 4.76 c0 3.16 -2.12 4.64 -6.64 4.64 l-4 0 l0 1.4 l4 0 z M191.98999999999998 28.6 l-16.36 -16.6 l-2 0 l19.8 20.12 l0 -17.32 l-1.44 0 l0 13.8 z M190.67 25.4 l0 -12 l4.08 0 l0 25.16 l-0.68 0 l-0.16 -0.16 l-18.32 -18.56 l0 20.16 l4.2 0 l0 -11.8 l-1.48 -1.52 l0 11.88 l-1.28 0 l0 -15.2 l16.6 16.64 l2.56 0 l0 -28 l-6.96 0 l0 11.84 z M174.26999999999998 40 l0 -23.4 l19.16 19.44 l0 -2.12 l-20.56 -20.76 l0 26.84 l1.4 0 z M207.99499999999998 12 l4.2 0 l0 25.32 l-1.44 0 l0 -23.88 l-1.32 0 l0 25.12 l4.04 0 l0 -26.56 l1.44 0 l0 28 l-6.92 0 l0 -28 z M243.31999999999996 28.6 l-16.36 -16.6 l-2 0 l19.8 20.12 l0 -17.32 l-1.44 0 l0 13.8 z M241.99999999999997 25.4 l0 -12 l4.08 0 l0 25.16 l-0.68 0 l-0.16 -0.16 l-18.32 -18.56 l0 20.16 l4.2 0 l0 -11.8 l-1.48 -1.52 l0 11.88 l-1.28 0 l0 -15.2 l16.6 16.64 l2.56 0 l0 -28 l-6.96 0 l0 11.84 z M225.59999999999997 40 l0 -23.4 l19.16 19.44 l0 -2.12 l-20.56 -20.76 l0 26.84 l1.4 0 z M269.485 40 c-2.48 0 -4.8 -0.64 -6.92 -1.92 c-4.32 -2.52 -7.04 -7.28 -7.04 -12.04 c0 -2.48 0.64 -4.84 1.92 -7.04 c2.56 -4.44 6.96 -6.96 12.04 -6.96 c3.48 0 6.84 1.32 9.4 3.68 c0.08 0.04 0.2 0.12 0.32 0.24 l0.28 0.32 l-1 1.04 l-0.56 -0.56 c-2.28 -2.12 -5.28 -3.28 -8.44 -3.28 c-2.24 0 -4.32 0.56 -6.24 1.68 c-3.88 2.24 -6.28 6.4 -6.28 10.88 c0 2.24 0.56 4.32 1.68 6.24 c2.24 3.88 6.36 6.28 10.84 6.28 c2.72 0 4.8 -0.76 8.2 -2.96 l0 -9.2 l-8.76 0 l0 -1.44 l10.16 0 l0 11.4 l-0.28 0.24 c-3.56 2.44 -6.12 3.4 -9.32 3.4 z M269.485 37.28 c-2 0 -3.88 -0.52 -5.6 -1.52 c-3.52 -2.04 -5.68 -5.72 -5.68 -9.72 c0 -2.04 0.52 -3.96 1.52 -5.72 c2.04 -3.48 5.64 -5.56 9.76 -5.56 c2.28 0 4.48 0.72 6.6 2.12 l1.04 0.8 l0.52 0.52 l-2.88 3.12 l-1.28 -1 c-1.16 -0.84 -2.52 -1.28 -4 -1.28 c-1.2 0 -2.36 0.32 -3.44 0.92 c-2.2 1.28 -3.52 3.52 -3.52 6.08 c0 1.2 0.32 2.36 0.96 3.44 c1.24 2.2 3.48 3.52 6 3.52 c1 0 1.92 -0.2 2.76 -0.64 l0 -0.64 l-3.32 0 l0 -4.08 l7.48 0 l0 7.12 l-0.92 0.72 c-1.8 1.24 -3.64 1.8 -6 1.8 z M269.485 16.2 c-1.76 0 -3.4 0.44 -4.92 1.32 c-3.04 1.76 -4.92 5 -4.92 8.52 c0 1.76 0.44 3.4 1.32 4.88 c1.76 3.04 5 4.92 8.52 4.92 c1.96 0 3.72 -0.52 5.2 -1.52 l0.28 -0.24 l0 -5 l-4.6 0 l0 1.2 l3.32 0 l0 3 l-0.4 0.2 c-1.32 0.64 -2.56 0.96 -3.8 0.96 c-1.44 0 -2.84 -0.4 -4.16 -1.16 c-2.68 -1.56 -4.24 -4.16 -4.24 -7.24 c0 -1.52 0.36 -2.92 1.12 -4.24 c1.48 -2.56 4.2 -4.16 7.28 -4.16 c1.72 0 3.36 0.52 4.84 1.52 l0.28 0.2 l0.96 -1.04 l-0.32 -0.24 c-1.72 -1.24 -3.64 -1.88 -5.76 -1.88 z"></path></g></svg>