<svg width="151" height="42" viewBox="0 0 151 42" fill="none" xmlns="http://www.w3.org/2000/svg">
<g clip-path="url(#clip0_208_960)">
<path d="M24.7013 4.33736H22.9359C22.2329 4.33736 21.6626 4.903 21.6626 5.60008V18.5746C21.6626 19.2717 22.2329 19.8374 22.9359 19.8374H24.7037C25.4066 19.8374 25.9769 19.2717 25.9769 18.5746V5.60008C25.9746 4.903 25.4042 4.33736 24.7013 4.33736Z" fill="#EA0029"/>
<path d="M18.3468 4.33736C17.2321 4.33736 16.2973 4.99923 15.8453 5.94745L11.1547 15.8332C11.0435 16.068 10.8234 16.4482 10.6388 16.4482C10.4542 16.4482 10.2341 16.068 10.1229 15.8332L5.39913 5.94745C4.94474 4.99923 4.00994 4.33736 2.89763 4.33736H0.168945L7.61427 18.6379C8.35264 20.0415 9.86253 20.0133 10.6388 20.0133C11.7085 20.0133 12.9604 19.9546 13.6254 18.6379L21.0707 4.33736H18.3468Z" fill="#EA0029"/>
<path d="M100.626 1.96214C100.626 1.26506 100.056 0.699425 99.3531 0.699425H97.5853C96.8824 0.699425 96.312 1.26506 96.312 1.96214V14.7795C96.312 16.7392 97.0125 17.8798 98.2669 18.699C99.4833 19.4876 100.884 19.8397 103.502 19.8397H104.919C105.622 19.8397 106.193 19.274 106.193 18.5769V17.2086H105.123C104.349 17.2086 102.728 17.1781 101.767 16.535C100.515 15.7158 100.624 14.2537 100.624 13.1998V1.96214H100.626Z" fill="#EA0029"/>
<path d="M73.0131 17.2063C72.2391 17.2063 70.6157 17.1758 69.6572 16.5326C68.4053 15.7135 68.5142 14.2514 68.5142 13.1975V6.97076H72.6959C73.3988 6.97076 73.9692 6.40512 73.9692 5.70804V4.33736H68.5165V1.96214C68.5165 1.26506 67.9462 0.699425 67.2432 0.699425H65.4755C64.7725 0.699425 64.2022 1.26506 64.2022 1.96214V4.33736H55.2068V1.96214C55.2068 1.26506 54.6364 0.699425 53.9336 0.699425H52.1657C51.4629 0.699425 50.8924 1.26506 50.8924 1.96214V4.33736H48.2017V5.70804C48.2017 6.40512 48.772 6.97076 49.4749 6.97076H50.8949V14.7795C50.8949 16.7392 51.5954 17.8798 52.8473 18.699C54.0638 19.4876 55.4648 19.8397 58.0822 19.8397H59.4998C60.2026 19.8397 60.773 19.274 60.773 18.5769V17.2086H59.7034C58.9295 17.2086 57.3083 17.1781 56.3499 16.535C55.0955 15.7158 55.2068 14.2537 55.2068 13.1998V6.97076H64.2022V14.7795C64.2022 16.7392 64.9027 17.8798 66.157 18.699C67.3734 19.4876 68.7745 19.8397 71.392 19.8397H72.8096C73.5124 19.8397 74.0827 19.274 74.0827 18.5769V17.2086H73.0131V17.2063Z" fill="#EA0029"/>
<path d="M46.6183 18.5769V17.2086H37.0714C35.4858 17.2086 33.6801 17.0326 33.1263 15.3661C32.9796 14.8992 32.8683 13.904 32.8683 13.2303H44.2233C44.9971 13.2303 45.7355 13.113 46.3248 12.6435C47.1366 12.0005 47.2478 11.0945 47.2478 10.3036C47.2478 8.34379 46.7674 6.41451 44.4812 5.27384C42.6755 4.36788 40.316 4.27869 38.0299 4.27869C36.1863 4.27869 32.8683 4.27869 30.7313 5.74091C28.5942 7.20312 28.4097 9.33659 28.4097 12.2328C28.4097 14.2795 28.5209 16.4153 29.8107 17.8775C31.4318 19.6918 33.7913 19.8374 35.7817 19.8374H45.3474C46.0479 19.8397 46.6183 19.274 46.6183 18.5769ZM42.7844 9.69099C42.7844 10.1017 42.6732 10.597 41.8259 10.597H35.6917C34.1321 10.597 32.8683 11.3034 32.8683 12.1766V10.597C32.9039 9.57365 32.8683 8.72401 33.7535 7.93541C34.9344 6.88157 36.7022 6.91209 37.8453 6.91209C39.0618 6.91209 40.4628 6.97077 41.5325 7.61385C42.1573 7.99407 42.7844 8.72401 42.7844 9.69099Z" fill="#EA0029"/>
<path d="M93.252 18.5769V17.2086H83.7052C82.1196 17.2086 80.3139 17.0326 79.7601 15.3661C79.6134 14.8992 79.5021 13.904 79.5021 13.2303H90.857C91.6309 13.2303 92.3693 13.113 92.9586 12.6435C93.7704 12.0005 93.8792 11.0945 93.8792 10.3036C93.8792 8.34379 93.3988 6.41451 91.115 5.27384C89.3093 4.36788 86.9498 4.27869 84.6637 4.27869C82.8201 4.27869 79.5021 4.27869 77.3651 5.74091C75.2257 7.20312 75.0435 9.33659 75.0435 12.2328C75.0435 14.2795 75.1546 16.4153 76.4445 17.8775C78.0656 19.6918 80.4251 19.8374 82.4178 19.8374H91.9836C92.6817 19.8397 93.252 19.274 93.252 18.5769ZM89.4182 9.69099C89.4182 10.1017 89.3069 10.597 88.4597 10.597H82.3255C80.7658 10.597 79.5021 11.3034 79.5021 12.1766V10.597C79.54 9.57365 79.5021 8.72401 80.3872 7.93541C81.5682 6.88157 83.336 6.91209 84.4791 6.91209C85.6955 6.91209 87.0966 6.97077 88.1662 7.61385C88.7911 7.99407 89.4182 8.72401 89.4182 9.69099Z" fill="#EA0029"/>
<path d="M24.7013 0H22.9359C22.2329 0 21.6626 0.565641 21.6626 1.26272V1.61242V4.52043C21.6626 3.75529 22.5217 2.87514 23.8186 2.87514H24.7037C25.4066 2.87514 25.9769 2.3095 25.9769 1.61242V1.26272C25.9746 0.565641 25.4042 0 24.7013 0Z" fill="#EA0029"/>
<path d="M148.43 4.42105H125.193C124.583 4.42105 124.088 4.91589 124.088 5.52631V18.7895C124.088 19.3999 124.583 19.8947 125.193 19.8947H148.43C149.041 19.8947 149.535 19.3999 149.535 18.7895V5.52631C149.535 4.91589 149.041 4.42105 148.43 4.42105Z" fill="#EA0029"/>
<path d="M136.812 6.63158L137.929 10.4502H141.547L138.62 12.8102L139.738 16.6288L136.812 14.2687L133.885 16.6288L135.002 12.8102L132.077 10.4502H135.693L136.812 6.63158Z" fill="#FFE600"/>
<path d="M0.882578 40V32.6057H3.50879L4.75731 36.3082C4.80036 36.4374 4.85059 36.5988 4.90799 36.7926C4.9654 36.9791 5.0228 37.1729 5.08021 37.3738C5.14478 37.5747 5.19501 37.7505 5.23089 37.9012H5.31699C5.35287 37.772 5.39592 37.6142 5.44615 37.4276C5.49638 37.241 5.5502 37.0473 5.6076 36.8464C5.67218 36.6455 5.72958 36.4661 5.77981 36.3082L7.01757 32.6057H9.58996V40H7.90015V36.2006C7.90015 35.9566 7.90015 35.7055 7.90015 35.4472C7.90732 35.1817 7.9145 34.9449 7.92168 34.7368C7.93603 34.5216 7.9432 34.3709 7.9432 34.2848H7.8571C7.82839 34.3781 7.78534 34.5216 7.72794 34.7153C7.67771 34.909 7.62031 35.1099 7.55573 35.318C7.49832 35.5261 7.44451 35.7055 7.39428 35.8562L5.97355 40H4.42365L2.99215 35.867C2.94193 35.7091 2.88811 35.5369 2.83071 35.3503C2.7733 35.1566 2.71949 34.9664 2.66926 34.7799C2.61903 34.5861 2.57598 34.4211 2.5401 34.2848H2.454C2.46117 34.4355 2.46835 34.622 2.47552 34.8445C2.4827 35.0669 2.48629 35.2965 2.48629 35.5333C2.49346 35.7701 2.49705 35.9925 2.49705 36.2006V40H0.882578ZM12.9549 40.1292C12.7037 40.1292 12.4562 40.104 12.2122 40.0538C11.9683 40.0108 11.7422 39.9318 11.5341 39.817C11.3332 39.695 11.1718 39.53 11.0498 39.3219C10.935 39.1067 10.8776 38.834 10.8776 38.5039C10.8776 38.0806 10.978 37.7397 11.179 37.4814C11.387 37.2231 11.6776 37.0294 12.0508 36.9002C12.4239 36.7639 12.8652 36.6742 13.3746 36.6311C13.8913 36.5809 14.4545 36.5558 15.0645 36.5558V36.2114C15.0645 36.0248 15.025 35.867 14.9461 35.7378C14.8671 35.6086 14.7416 35.5118 14.5693 35.4472C14.3971 35.3754 14.1675 35.3396 13.8805 35.3396C13.6222 35.3396 13.4033 35.3647 13.224 35.4149C13.0446 35.4651 12.9082 35.5333 12.815 35.6194C12.7217 35.7055 12.675 35.806 12.675 35.9208V36.0499H11.1251C11.118 36.014 11.1144 35.9818 11.1144 35.9531C11.1144 35.9244 11.1144 35.8885 11.1144 35.8454C11.1144 35.5154 11.222 35.2283 11.4373 34.9844C11.6597 34.7332 11.979 34.5395 12.3952 34.4032C12.8185 34.2668 13.328 34.1987 13.9236 34.1987C14.5048 34.1987 14.9963 34.2668 15.3981 34.4032C15.8071 34.5323 16.1157 34.7332 16.3237 35.0059C16.5318 35.2714 16.6359 35.6194 16.6359 36.0499V38.547C16.6359 38.6761 16.6682 38.7766 16.7327 38.8483C16.8045 38.9129 16.8942 38.9452 17.0018 38.9452H17.4431V39.9462C17.3642 39.9749 17.2386 40.0108 17.0664 40.0538C16.8942 40.104 16.6969 40.1292 16.4744 40.1292C16.2161 40.1292 16.0008 40.0933 15.8286 40.0215C15.6564 39.9569 15.5201 39.8637 15.4196 39.7417C15.3192 39.6197 15.2474 39.4834 15.2044 39.3327H15.129C14.9712 39.4905 14.7846 39.6305 14.5693 39.7524C14.3541 39.8744 14.1101 39.9677 13.8375 40.0323C13.572 40.0969 13.2778 40.1292 12.9549 40.1292ZM13.4285 38.9667C13.6294 38.9667 13.8267 38.9416 14.0204 38.8914C14.2142 38.8412 14.39 38.7658 14.5478 38.6654C14.7057 38.5649 14.8313 38.4429 14.9245 38.2994C15.0178 38.1487 15.0645 37.9837 15.0645 37.8043V37.503C14.5191 37.503 14.0491 37.5317 13.6545 37.5891C13.267 37.6393 12.9692 37.729 12.7611 37.8581C12.5602 37.9801 12.4598 38.1559 12.4598 38.3855C12.4598 38.5219 12.5028 38.6331 12.5889 38.7192C12.675 38.8053 12.7898 38.8699 12.9333 38.9129C13.084 38.9488 13.2491 38.9667 13.4285 38.9667ZM18.19 40V34.3278H19.4815L19.5892 35.1781H19.6753C19.8403 34.9628 20.0305 34.7835 20.2457 34.64C20.461 34.4893 20.6942 34.378 20.9453 34.3063C21.2036 34.2345 21.4727 34.1987 21.7526 34.1987C22.1903 34.1987 22.5634 34.274 22.8719 34.4247C23.1877 34.5754 23.428 34.8086 23.5931 35.1243C23.7581 35.4328 23.8406 35.8383 23.8406 36.3405V40H22.2692V36.5881C22.2692 36.3872 22.2441 36.2185 22.1939 36.0822C22.1436 35.9387 22.0683 35.8239 21.9678 35.7378C21.8746 35.6517 21.7562 35.5907 21.6126 35.5548C21.4763 35.5118 21.322 35.4902 21.1498 35.4902C20.8915 35.4902 20.6583 35.5476 20.4502 35.6625C20.2421 35.7701 20.0735 35.9244 19.9444 36.1253C19.8224 36.3262 19.7614 36.5594 19.7614 36.8249V40H18.19ZM27.288 40.1292C26.6207 40.1292 26.1041 39.9605 25.7381 39.6233C25.3722 39.2789 25.1892 38.7371 25.1892 37.9981V34.3278H26.7606V37.7397C26.7606 37.9407 26.7857 38.1129 26.836 38.2564C26.8934 38.3927 26.9687 38.5075 27.062 38.6008C27.1553 38.6869 27.2701 38.7515 27.4064 38.7945C27.5499 38.8304 27.7078 38.8483 27.88 38.8483C28.1383 38.8483 28.3715 38.7909 28.5796 38.6761C28.7949 38.5613 28.9635 38.4035 29.0855 38.2026C29.2146 38.0016 29.2792 37.772 29.2792 37.5137V34.3278H30.8399V40H29.559L29.4514 39.1497H29.3653C29.2074 39.365 29.0173 39.5479 28.7949 39.6986C28.5796 39.8421 28.3428 39.9498 28.0845 40.0215C27.8334 40.0933 27.5679 40.1292 27.288 40.1292ZM32.6515 40V35.5225H31.6936V34.3278H32.6515V33.7897C32.6515 33.4452 32.7125 33.1475 32.8345 32.8963C32.9565 32.6452 33.143 32.4514 33.3942 32.3151C33.6525 32.1716 33.9826 32.0999 34.3844 32.0999C34.5064 32.0999 34.6355 32.1106 34.7719 32.1321C34.9082 32.1465 35.0409 32.168 35.1701 32.1967C35.2992 32.2182 35.4141 32.2469 35.5145 32.2828V33.2946H34.901C34.657 33.2946 34.4813 33.3376 34.3736 33.4237C34.2732 33.5098 34.2229 33.6462 34.2229 33.8327V34.3278H35.5145V35.5225H34.2229V40H32.6515ZM37.9918 40.1292C37.7407 40.1292 37.4931 40.104 37.2491 40.0538C37.0052 40.0108 36.7792 39.9318 36.5711 39.817C36.3702 39.695 36.2087 39.53 36.0867 39.3219C35.9719 39.1067 35.9145 38.834 35.9145 38.5039C35.9145 38.0806 36.015 37.7397 36.2159 37.4814C36.424 37.2231 36.7146 37.0294 37.0877 36.9002C37.4608 36.7639 37.9021 36.6742 38.4116 36.6311C38.9282 36.5809 39.4915 36.5558 40.1014 36.5558V36.2114C40.1014 36.0248 40.0619 35.867 39.983 35.7378C39.9041 35.6086 39.7785 35.5118 39.6063 35.4472C39.4341 35.3754 39.2044 35.3396 38.9174 35.3396C38.6591 35.3396 38.4403 35.3647 38.2609 35.4149C38.0815 35.4651 37.9452 35.5333 37.8519 35.6194C37.7586 35.7055 37.712 35.806 37.712 35.9208V36.0499H36.1621C36.1549 36.014 36.1513 35.9818 36.1513 35.9531C36.1513 35.9244 36.1513 35.8885 36.1513 35.8454C36.1513 35.5154 36.2589 35.2283 36.4742 34.9844C36.6966 34.7332 37.0159 34.5395 37.4321 34.4032C37.8555 34.2668 38.3649 34.1987 38.9605 34.1987C39.5417 34.1987 40.0332 34.2668 40.435 34.4032C40.844 34.5323 41.1526 34.7332 41.3607 35.0059C41.5688 35.2714 41.6728 35.6194 41.6728 36.0499V38.547C41.6728 38.6761 41.7051 38.7766 41.7697 38.8483C41.8414 38.9129 41.9311 38.9452 42.0387 38.9452H42.48V39.9462C42.4011 39.9749 42.2755 40.0108 42.1033 40.0538C41.9311 40.104 41.7338 40.1292 41.5113 40.1292C41.253 40.1292 41.0378 40.0933 40.8656 40.0215C40.6934 39.9569 40.557 39.8637 40.4566 39.7417C40.3561 39.6197 40.2844 39.4834 40.2413 39.3327H40.166C40.0081 39.4905 39.8215 39.6305 39.6063 39.7524C39.391 39.8744 39.147 39.9677 38.8744 40.0323C38.6089 40.0969 38.3147 40.1292 37.9918 40.1292ZM38.4654 38.9667C38.6663 38.9667 38.8636 38.9416 39.0574 38.8914C39.2511 38.8412 39.4269 38.7658 39.5847 38.6654C39.7426 38.5649 39.8682 38.4429 39.9615 38.2994C40.0547 38.1487 40.1014 37.9837 40.1014 37.8043V37.503C39.556 37.503 39.0861 37.5317 38.6914 37.5891C38.3039 37.6393 38.0062 37.729 37.7981 37.8581C37.5972 37.9801 37.4967 38.1559 37.4967 38.3855C37.4967 38.5219 37.5397 38.6331 37.6259 38.7192C37.712 38.8053 37.8268 38.8699 37.9703 38.9129C38.121 38.9488 38.286 38.9667 38.4654 38.9667ZM46.0576 40.1292C45.3975 40.1292 44.8378 40.0215 44.3786 39.8063C43.9193 39.591 43.5677 39.2645 43.3238 38.8268C43.087 38.3819 42.9686 37.8258 42.9686 37.1585C42.9686 36.4912 43.0906 35.9387 43.3345 35.501C43.5785 35.0633 43.9301 34.7368 44.3893 34.5216C44.8485 34.3063 45.4046 34.1987 46.0576 34.1987C46.481 34.1987 46.8684 34.2489 47.22 34.3493C47.5716 34.4426 47.8766 34.5861 48.1349 34.7799C48.4004 34.9736 48.6013 35.214 48.7376 35.501C48.8811 35.788 48.9529 36.1253 48.9529 36.5127H47.3707C47.3707 36.2688 47.3169 36.0643 47.2093 35.8992C47.1016 35.727 46.9474 35.5979 46.7464 35.5118C46.5527 35.4257 46.3195 35.3826 46.0468 35.3826C45.7239 35.3826 45.4513 35.4472 45.2288 35.5763C45.0136 35.7055 44.8521 35.8921 44.7445 36.136C44.6369 36.38 44.5831 36.685 44.5831 37.0509V37.2877C44.5831 37.6393 44.6369 37.9407 44.7445 38.1918C44.8521 38.4429 45.0172 38.6331 45.2396 38.7622C45.4692 38.8842 45.7562 38.9452 46.1007 38.9452C46.3733 38.9452 46.6065 38.9022 46.8003 38.8161C47.0012 38.7228 47.159 38.59 47.2738 38.4178C47.3886 38.2456 47.4461 38.0411 47.4461 37.8043H48.9529C48.9529 38.1846 48.8811 38.5219 48.7376 38.8161C48.6013 39.1031 48.404 39.347 48.1457 39.5479C47.8873 39.7417 47.5788 39.8888 47.22 39.9892C46.8684 40.0825 46.481 40.1292 46.0576 40.1292ZM52.1455 40.1292C51.758 40.1292 51.4387 40.0682 51.1876 39.9462C50.9436 39.8242 50.7642 39.6448 50.6494 39.408C50.5346 39.1641 50.4772 38.8699 50.4772 38.5254V35.5225H49.6162V34.3278H50.531L50.8324 32.6918H52.0486V34.3278H53.2864V35.5225H52.0486V38.2887C52.0486 38.5039 52.0917 38.669 52.1778 38.7838C52.2711 38.8914 52.4397 38.9452 52.6837 38.9452H53.2864V39.9462C53.2003 39.9821 53.0891 40.0108 52.9527 40.0323C52.8164 40.061 52.6765 40.0825 52.533 40.0969C52.3895 40.1184 52.2603 40.1292 52.1455 40.1292ZM56.4032 40.1292C55.7359 40.1292 55.2192 39.9605 54.8533 39.6233C54.4873 39.2789 54.3044 38.7371 54.3044 37.9981V34.3278H55.8758V37.7397C55.8758 37.9407 55.9009 38.1129 55.9511 38.2564C56.0085 38.3927 56.0839 38.5075 56.1771 38.6008C56.2704 38.6869 56.3852 38.7515 56.5216 38.7945C56.6651 38.8304 56.8229 38.8483 56.9951 38.8483C57.2535 38.8483 57.4867 38.7909 57.6947 38.6761C57.91 38.5613 58.0786 38.4035 58.2006 38.2026C58.3298 38.0016 58.3944 37.772 58.3944 37.5137V34.3278H59.955V40H58.6742L58.5666 39.1497H58.4805C58.3226 39.365 58.1325 39.5479 57.91 39.6986C57.6947 39.8421 57.458 39.9498 57.1996 40.0215C56.9485 40.0933 56.683 40.1292 56.4032 40.1292ZM61.3792 40V34.3278H62.6708L62.7784 35.2535H62.8645C62.9434 35.0597 63.0475 34.8839 63.1766 34.7261C63.313 34.561 63.478 34.4319 63.6717 34.3386C63.8655 34.2453 64.0879 34.1987 64.3391 34.1987C64.461 34.1987 64.5758 34.2094 64.6835 34.231C64.7983 34.2525 64.8916 34.2776 64.9633 34.3063V35.684H64.3606C64.1166 35.684 63.9049 35.7199 63.7256 35.7916C63.5533 35.8634 63.4063 35.971 63.2843 36.1145C63.1695 36.2508 63.0834 36.4159 63.026 36.6096C62.9757 36.7962 62.9506 37.0043 62.9506 37.2339V40H61.3792ZM65.7938 33.4883V32.2075H67.3652V33.4883H65.7938ZM65.7938 40V34.3278H67.3652V40H65.7938ZM68.7894 40V34.3278H70.0809L70.1886 35.1781H70.2747C70.4397 34.9628 70.6299 34.7835 70.8451 34.64C71.0604 34.4893 71.2936 34.378 71.5447 34.3063C71.803 34.2345 72.0721 34.1987 72.352 34.1987C72.7897 34.1987 73.1628 34.274 73.4713 34.4247C73.787 34.5754 74.0274 34.8086 74.1925 35.1243C74.3575 35.4328 74.44 35.8383 74.44 36.3405V40H72.8686V36.5881C72.8686 36.3872 72.8435 36.2185 72.7933 36.0822C72.743 35.9387 72.6677 35.8239 72.5672 35.7378C72.4739 35.6517 72.3556 35.5907 72.212 35.5548C72.0757 35.5118 71.9214 35.4902 71.7492 35.4902C71.4909 35.4902 71.2577 35.5476 71.0496 35.6625C70.8415 35.7701 70.6729 35.9244 70.5438 36.1253C70.4218 36.3262 70.3608 36.5594 70.3608 36.8249V40H68.7894ZM76.8542 42.0773C76.5743 42.0773 76.3124 42.0271 76.0684 41.9266C75.8317 41.8261 75.6415 41.6755 75.498 41.4746C75.3545 41.2736 75.2827 41.0261 75.2827 40.7319C75.2827 40.4305 75.376 40.1794 75.5626 39.9785C75.7491 39.7776 75.9752 39.6269 76.2407 39.5264C76.0469 39.426 75.8962 39.2932 75.7886 39.1282C75.6882 38.9632 75.6379 38.7766 75.6379 38.5685C75.6379 38.2815 75.7384 38.0411 75.9393 37.8474C76.1474 37.6536 76.4021 37.5317 76.7035 37.4814C76.4308 37.3236 76.2155 37.1227 76.0577 36.8787C75.8998 36.6275 75.8209 36.3549 75.8209 36.0607C75.8209 35.6373 75.9321 35.2893 76.1546 35.0167C76.3842 34.744 76.7106 34.5395 77.134 34.4032C77.5574 34.2668 78.0632 34.1987 78.6516 34.1987C78.8812 34.1987 79.0965 34.213 79.2974 34.2417C79.4983 34.2632 79.6849 34.2955 79.8571 34.3386C80.1584 34.1807 80.3737 34.0085 80.5029 33.822C80.632 33.6354 80.7038 33.4775 80.7181 33.3484H82.1819C82.1747 33.6139 82.1173 33.8471 82.0097 34.048C81.9092 34.2417 81.7622 34.4032 81.5684 34.5323C81.3747 34.6543 81.1415 34.744 80.8688 34.8014C81.0697 34.9593 81.224 35.1458 81.3316 35.3611C81.4393 35.5692 81.4931 35.8024 81.4931 36.0607C81.4931 36.4697 81.389 36.8141 81.1809 37.094C80.98 37.3666 80.6858 37.5747 80.2984 37.7182C79.9109 37.8545 79.4481 37.9227 78.9099 37.9227H77.8013C77.6148 37.9227 77.4712 37.9586 77.3708 38.0303C77.2775 38.0949 77.2309 38.1846 77.2309 38.2994C77.2309 38.4071 77.2739 38.4967 77.36 38.5685C77.4533 38.6403 77.6004 38.6761 77.8013 38.6761H80.5244C81.041 38.6761 81.4428 38.8304 81.7299 39.1389C82.0169 39.4403 82.1604 39.8242 82.1604 40.2906C82.1604 40.6422 82.0671 40.9507 81.8805 41.2162C81.694 41.4889 81.4428 41.7006 81.1271 41.8513C80.8114 42.0019 80.4526 42.0773 80.0508 42.0773H76.8542ZM77.4461 41.044H79.9217C80.0508 41.044 80.162 41.0189 80.2553 40.9687C80.3558 40.9256 80.4347 40.8611 80.4921 40.7749C80.5495 40.6888 80.5782 40.5884 80.5782 40.4736C80.5782 40.2942 80.5172 40.1543 80.3952 40.0538C80.2804 39.9605 80.1369 39.9139 79.9647 39.9139H77.4677C77.2883 39.9139 77.1376 39.9641 77.0156 40.0646C76.9008 40.165 76.8434 40.3014 76.8434 40.4736C76.8434 40.6458 76.9008 40.7821 77.0156 40.8826C77.1304 40.9902 77.2739 41.044 77.4461 41.044ZM78.6624 36.9217C79.0642 36.9217 79.3763 36.8536 79.5988 36.7172C79.8212 36.5737 79.9324 36.3549 79.9324 36.0607C79.9324 35.7665 79.8212 35.5512 79.5988 35.4149C79.3763 35.2714 79.0642 35.1996 78.6624 35.1996C78.2605 35.1996 77.9484 35.2714 77.726 35.4149C77.5035 35.5512 77.3923 35.7665 77.3923 36.0607C77.3923 36.2544 77.439 36.4159 77.5322 36.545C77.6327 36.6742 77.7762 36.7711 77.9628 36.8356C78.1565 36.893 78.3897 36.9217 78.6624 36.9217ZM89.4392 40.1292C88.571 40.1292 87.8355 39.9892 87.2328 39.7094C86.6372 39.4296 86.1852 39.0062 85.8766 38.4393C85.5753 37.8725 85.4246 37.1585 85.4246 36.2975C85.4246 35.0346 85.769 34.0839 86.4578 33.4452C87.1538 32.7995 88.1476 32.4766 89.4392 32.4766C90.1568 32.4766 90.7918 32.5914 91.3443 32.821C91.904 33.0434 92.3417 33.3771 92.6574 33.822C92.9731 34.2597 93.131 34.8014 93.131 35.4472H91.4412C91.4412 35.1028 91.3551 34.8158 91.1828 34.5861C91.0178 34.3493 90.7846 34.17 90.4832 34.048C90.1819 33.9188 89.8303 33.8542 89.4285 33.8542C88.9405 33.8542 88.5279 33.9439 88.1907 34.1233C87.8535 34.3027 87.5987 34.5646 87.4265 34.909C87.2615 35.2463 87.179 35.6589 87.179 36.1468V36.4589C87.179 36.9469 87.2615 37.363 87.4265 37.7074C87.5987 38.0447 87.8499 38.303 88.1799 38.4824C88.5172 38.6618 88.9334 38.7515 89.4285 38.7515C89.8518 38.7515 90.2178 38.6941 90.5263 38.5793C90.8348 38.4573 91.0716 38.2779 91.2367 38.0411C91.4089 37.8043 91.495 37.5173 91.495 37.1801H93.1417C93.1417 37.8187 92.9839 38.3568 92.6682 38.7945C92.3596 39.2322 91.9255 39.5659 91.3658 39.7955C90.8133 40.0179 90.1711 40.1292 89.4392 40.1292ZM97.2894 40.1292C96.6221 40.1292 96.0517 40.0215 95.5781 39.8063C95.1045 39.591 94.7421 39.2645 94.491 38.8268C94.247 38.3819 94.1251 37.8258 94.1251 37.1585C94.1251 36.4912 94.247 35.9387 94.491 35.501C94.7421 35.0633 95.1045 34.7368 95.5781 34.5216C96.0517 34.3063 96.6221 34.1987 97.2894 34.1987C97.9639 34.1987 98.5344 34.3063 99.0008 34.5216C99.4743 34.7368 99.8331 35.0633 100.077 35.501C100.328 35.9387 100.454 36.4912 100.454 37.1585C100.454 37.8258 100.328 38.3819 100.077 38.8268C99.8331 39.2645 99.4743 39.591 99.0008 39.8063C98.5344 40.0215 97.9639 40.1292 97.2894 40.1292ZM97.2894 38.9452C97.641 38.9452 97.9316 38.8806 98.1612 38.7515C98.3908 38.6223 98.5595 38.4358 98.6671 38.1918C98.7819 37.9407 98.8393 37.6393 98.8393 37.2877V37.0509C98.8393 36.685 98.7819 36.38 98.6671 36.136C98.5595 35.8921 98.3908 35.7091 98.1612 35.5871C97.9316 35.458 97.641 35.3934 97.2894 35.3934C96.9378 35.3934 96.6472 35.458 96.4176 35.5871C96.188 35.7091 96.0158 35.8921 95.901 36.136C95.7933 36.38 95.7395 36.685 95.7395 37.0509V37.2877C95.7395 37.6393 95.7933 37.9407 95.901 38.1918C96.0158 38.4358 96.188 38.6223 96.4176 38.7515C96.6472 38.8806 96.9378 38.9452 97.2894 38.9452ZM101.615 41.9697V34.3278H102.896L103.025 35.1458H103.111C103.333 34.8158 103.61 34.5754 103.94 34.4247C104.27 34.274 104.636 34.1987 105.038 34.1987C105.554 34.1987 106.003 34.3063 106.383 34.5216C106.763 34.7296 107.057 35.0525 107.266 35.4902C107.481 35.9279 107.588 36.4876 107.588 37.1693C107.588 37.8438 107.481 38.3999 107.266 38.8376C107.057 39.2753 106.767 39.6018 106.394 39.817C106.021 40.0251 105.59 40.1292 105.102 40.1292C104.844 40.1292 104.596 40.1005 104.359 40.0431C104.13 39.9856 103.922 39.8995 103.735 39.7847C103.549 39.6628 103.391 39.5157 103.262 39.3434H103.186V41.9697H101.615ZM104.585 38.8591C104.908 38.8591 105.17 38.7981 105.371 38.6761C105.579 38.5542 105.734 38.3748 105.834 38.138C105.934 37.9012 105.985 37.6142 105.985 37.2769V37.0617C105.985 36.7172 105.934 36.4266 105.834 36.1898C105.734 35.9531 105.579 35.7773 105.371 35.6625C105.163 35.5405 104.898 35.4795 104.575 35.4795C104.266 35.4795 104.008 35.5441 103.8 35.6732C103.592 35.7952 103.434 35.9782 103.326 36.2221C103.226 36.4661 103.176 36.7567 103.176 37.094V37.2339C103.176 37.485 103.204 37.711 103.262 37.9119C103.319 38.1129 103.405 38.2851 103.52 38.4286C103.642 38.5649 103.789 38.6725 103.961 38.7515C104.141 38.8232 104.349 38.8591 104.585 38.8591ZM111.647 40.1292C110.98 40.1292 110.41 40.0215 109.936 39.8063C109.462 39.591 109.1 39.2645 108.849 38.8268C108.605 38.3819 108.483 37.8258 108.483 37.1585C108.483 36.4912 108.605 35.9387 108.849 35.501C109.1 35.0633 109.462 34.7368 109.936 34.5216C110.41 34.3063 110.98 34.1987 111.647 34.1987C112.322 34.1987 112.892 34.3063 113.359 34.5216C113.832 34.7368 114.191 35.0633 114.435 35.501C114.686 35.9387 114.812 36.4912 114.812 37.1585C114.812 37.8258 114.686 38.3819 114.435 38.8268C114.191 39.2645 113.832 39.591 113.359 39.8063C112.892 40.0215 112.322 40.1292 111.647 40.1292ZM111.647 38.9452C111.999 38.9452 112.289 38.8806 112.519 38.7515C112.749 38.6223 112.917 38.4358 113.025 38.1918C113.14 37.9407 113.197 37.6393 113.197 37.2877V37.0509C113.197 36.685 113.14 36.38 113.025 36.136C112.917 35.8921 112.749 35.7091 112.519 35.5871C112.289 35.458 111.999 35.3934 111.647 35.3934C111.296 35.3934 111.005 35.458 110.775 35.5871C110.546 35.7091 110.374 35.8921 110.259 36.136C110.151 36.38 110.097 36.685 110.097 37.0509V37.2877C110.097 37.6393 110.151 37.9407 110.259 38.1918C110.374 38.4358 110.546 38.6223 110.775 38.7515C111.005 38.8806 111.296 38.9452 111.647 38.9452ZM115.973 40V34.3278H117.264L117.372 35.2535H117.458C117.537 35.0597 117.641 34.8839 117.77 34.7261C117.907 34.561 118.072 34.4319 118.265 34.3386C118.459 34.2453 118.681 34.1987 118.933 34.1987C119.055 34.1987 119.169 34.2094 119.277 34.231C119.392 34.2525 119.485 34.2776 119.557 34.3063V35.684H118.954C118.71 35.684 118.498 35.7199 118.319 35.7916C118.147 35.8634 118 35.971 117.878 36.1145C117.763 36.2508 117.677 36.4159 117.619 36.6096C117.569 36.7962 117.544 37.0043 117.544 37.2339V40H115.973ZM122.026 40.1292C121.775 40.1292 121.528 40.104 121.284 40.0538C121.04 40.0108 120.814 39.9318 120.606 39.817C120.405 39.695 120.243 39.53 120.121 39.3219C120.006 39.1067 119.949 38.834 119.949 38.5039C119.949 38.0806 120.049 37.7397 120.25 37.4814C120.458 37.2231 120.749 37.0294 121.122 36.9002C121.495 36.7639 121.937 36.6742 122.446 36.6311C122.963 36.5809 123.526 36.5558 124.136 36.5558V36.2114C124.136 36.0248 124.096 35.867 124.018 35.7378C123.939 35.6086 123.813 35.5118 123.641 35.4472C123.469 35.3754 123.239 35.3396 122.952 35.3396C122.694 35.3396 122.475 35.3647 122.295 35.4149C122.116 35.4651 121.98 35.5333 121.886 35.6194C121.793 35.7055 121.746 35.806 121.746 35.9208V36.0499H120.197C120.189 36.014 120.186 35.9818 120.186 35.9531C120.186 35.9244 120.186 35.8885 120.186 35.8454C120.186 35.5154 120.293 35.2283 120.509 34.9844C120.731 34.7332 121.05 34.5395 121.467 34.4032C121.89 34.2668 122.399 34.1987 122.995 34.1987C123.576 34.1987 124.068 34.2668 124.47 34.4032C124.879 34.5323 125.187 34.7332 125.395 35.0059C125.603 35.2714 125.707 35.6194 125.707 36.0499V38.547C125.707 38.6761 125.74 38.7766 125.804 38.8483C125.876 38.9129 125.966 38.9452 126.073 38.9452H126.515V39.9462C126.436 39.9749 126.31 40.0108 126.138 40.0538C125.966 40.104 125.768 40.1292 125.546 40.1292C125.288 40.1292 125.072 40.0933 124.9 40.0215C124.728 39.9569 124.592 39.8637 124.491 39.7417C124.391 39.6197 124.319 39.4834 124.276 39.3327H124.2C124.043 39.4905 123.856 39.6305 123.641 39.7524C123.426 39.8744 123.182 39.9677 122.909 40.0323C122.643 40.0969 122.349 40.1292 122.026 40.1292ZM122.5 38.9667C122.701 38.9667 122.898 38.9416 123.092 38.8914C123.286 38.8412 123.461 38.7658 123.619 38.6654C123.777 38.5649 123.903 38.4429 123.996 38.2994C124.089 38.1487 124.136 37.9837 124.136 37.8043V37.503C123.591 37.503 123.121 37.5317 122.726 37.5891C122.338 37.6393 122.041 37.729 121.833 37.8581C121.632 37.9801 121.531 38.1559 121.531 38.3855C121.531 38.5219 121.574 38.6331 121.66 38.7192C121.746 38.8053 121.861 38.8699 122.005 38.9129C122.155 38.9488 122.321 38.9667 122.5 38.9667ZM129.285 40.1292C128.897 40.1292 128.578 40.0682 128.327 39.9462C128.083 39.8242 127.904 39.6448 127.789 39.408C127.674 39.1641 127.617 38.8699 127.617 38.5254V35.5225H126.756V34.3278H127.67L127.972 32.6918H129.188V34.3278H130.426V35.5225H129.188V38.2887C129.188 38.5039 129.231 38.669 129.317 38.7838C129.41 38.8914 129.579 38.9452 129.823 38.9452H130.426V39.9462C130.34 39.9821 130.228 40.0108 130.092 40.0323C129.956 40.061 129.816 40.0825 129.672 40.0969C129.529 40.1184 129.4 40.1292 129.285 40.1292ZM131.487 33.4883V32.2075H133.058V33.4883H131.487ZM131.487 40V34.3278H133.058V40H131.487ZM137.388 40.1292C136.721 40.1292 136.151 40.0215 135.677 39.8063C135.204 39.591 134.841 39.2645 134.59 38.8268C134.346 38.3819 134.224 37.8258 134.224 37.1585C134.224 36.4912 134.346 35.9387 134.59 35.501C134.841 35.0633 135.204 34.7368 135.677 34.5216C136.151 34.3063 136.721 34.1987 137.388 34.1987C138.063 34.1987 138.633 34.3063 139.1 34.5216C139.573 34.7368 139.932 35.0633 140.176 35.501C140.427 35.9387 140.553 36.4912 140.553 37.1585C140.553 37.8258 140.427 38.3819 140.176 38.8268C139.932 39.2645 139.573 39.591 139.1 39.8063C138.633 40.0215 138.063 40.1292 137.388 40.1292ZM137.388 38.9452C137.74 38.9452 138.031 38.8806 138.26 38.7515C138.49 38.6223 138.658 38.4358 138.766 38.1918C138.881 37.9407 138.938 37.6393 138.938 37.2877V37.0509C138.938 36.685 138.881 36.38 138.766 36.136C138.658 35.8921 138.49 35.7091 138.26 35.5871C138.031 35.458 137.74 35.3934 137.388 35.3934C137.037 35.3934 136.746 35.458 136.517 35.5871C136.287 35.7091 136.115 35.8921 136 36.136C135.892 36.38 135.839 36.685 135.839 37.0509V37.2877C135.839 37.6393 135.892 37.9407 136 38.1918C136.115 38.4358 136.287 38.6223 136.517 38.7515C136.746 38.8806 137.037 38.9452 137.388 38.9452ZM141.714 40V34.3278H143.005L143.113 35.1781H143.199C143.364 34.9628 143.554 34.7835 143.77 34.64C143.985 34.4893 144.218 34.378 144.469 34.3063C144.728 34.2345 144.997 34.1987 145.276 34.1987C145.714 34.1987 146.087 34.274 146.396 34.4247C146.712 34.5754 146.952 34.8086 147.117 35.1243C147.282 35.4328 147.365 35.8383 147.365 36.3405V40H145.793V36.5881C145.793 36.3872 145.768 36.2185 145.718 36.0822C145.668 35.9387 145.592 35.8239 145.492 35.7378C145.398 35.6517 145.28 35.5907 145.137 35.5548C145 35.5118 144.846 35.4902 144.674 35.4902C144.415 35.4902 144.182 35.5476 143.974 35.6625C143.766 35.7701 143.597 35.9244 143.468 36.1253C143.346 36.3262 143.285 36.5594 143.285 36.8249V40H141.714Z" fill="white"/>
</g>
<defs>
<clipPath id="clip0_208_960">
<rect width="150.316" height="42" fill="white"/>
</clipPath>
</defs>
</svg>
